<svg version="1.1" xmlns="http://www.w3.org/2000/svg" width="512" height="512" viewBox="0 0 512 512">
<path fill="#353535" d="M256.233 465.033c-111.377-5.414-199.629-97.034-199.629-209.264s88.252-203.85 199.146-209.245l0.483-0.019c111.377 5.414 199.629 97.034 199.629 209.264s-88.252 203.85-199.146 209.245l-0.483 0.019zM256.233 0.001c-0.069 0-0.151 0-0.233 0-141.385 0-256 114.615-256 255.999s114.615 256 256 256c141.385 0 256-114.615 256-256 0-0.082 0-0.163 0-0.245v0.012c0-140.905-114.63-255.768-255.768-255.768z" />
<path fill="#353535" d="M163.226 232.517c-12.841 0-23.251 10.41-23.251 23.251s10.41 23.251 23.251 23.251v0c12.841 0 23.251-10.41 23.251-23.251s-10.41-23.251-23.251-23.251v0zM256.233 232.517c-12.841 0-23.251 10.41-23.251 23.251s10.41 23.251 23.251 23.251v0c12.841 0 23.252-10.41 23.252-23.251s-10.41-23.251-23.252-23.251v0zM349.239 232.517c-12.841 0-23.252 10.41-23.252 23.251s10.41 23.251 23.252 23.251v0c12.841 0 23.252-10.41 23.252-23.251s-10.41-23.251-23.252-23.251v0z" />
</svg>
