<svg xmlns="http://www.w3.org/2000/svg" viewBox="0 0 26 26"><g fill="none" fill-rule="evenodd" transform="translate(1 1)"><circle cx="12" cy="12" r="12" stroke="#353535" stroke-width="2"/><path fill="#353535" d="M13.64 5v5.57c0 .6-.03 1.17-.09 1.74a34.2 34.2 0 0 1-.23 1.8h-1.63a36.99 36.99 0 0 1-.23-1.8 16.98 16.98 0 0 1-.09-1.74V5h2.27zM11 17.76a1.5 1.5 0 0 1 .42-1.04 1.53 1.53 0 0 1 1.06-.43 1.46 1.46 0 0 1 1.35.9 1.45 1.45 0 0 1 0 1.15 1.41 1.41 0 0 1-.78.77 1.5 1.5 0 0 1-.57.11 1.52 1.52 0 0 1-1.06-.42 1.39 1.39 0 0 1-.3-.46 1.49 1.49 0 0 1-.12-.58z"/></g></svg>