<svg version="1.1" xmlns="http://www.w3.org/2000/svg" width="512" height="512" viewBox="0 0 512 512">
<path d="M256.213 17.479c-127.553 5.559-228.857 110.316-228.857 238.735s101.304 233.175 228.357 238.717l0.5 0.017c127.553-5.559 228.857-110.316 228.857-238.734s-101.304-233.175-228.356-238.717l-0.5-0.017zM256.213 512c-0.063 0-0.138 0-0.213 0-141.385 0-256-114.615-256-256s114.615-256 256-256c141.385 0 256 114.615 256 256 0 0.075 0 0.15 0 0.225v-0.012c0 141.109-114.678 255.786-255.786 255.786z" />
<path d="M256.213 60.111c-104.415 5.020-187.171 90.897-187.171 196.103s82.756 191.083 186.722 196.086l0.448 0.017c104.415-5.021 187.171-90.897 187.171-196.103s-82.756-191.083-186.722-196.086l-0.449-0.017zM256.213 469.369c-113.665-5.242-203.833-98.668-203.833-213.155s90.168-207.913 203.364-213.138l0.47-0.017c113.665 5.242 203.833 98.668 203.833 213.156s-90.168 207.913-203.364 213.138l-0.47 0.017z" />
<path d="M256.213 119.794c-4.709 0-8.526-3.817-8.526-8.526v0-25.579c0-4.709 3.817-8.526 8.526-8.526s8.526 3.817 8.526 8.526v25.578c0 4.709-3.817 8.526-8.526 8.526v0zM256.213 435.264c-4.709 0-8.526-3.817-8.526-8.526v0-25.579c0-4.709 3.817-8.526 8.526-8.526s8.526 3.817 8.526 8.526v25.579c0 4.709-3.817 8.526-8.526 8.526v0zM426.738 264.74h-25.579c-4.709 0-8.526-3.817-8.526-8.526s3.817-8.526 8.526-8.526h25.579c4.709 0 8.526 3.817 8.526 8.526s-3.817 8.526-8.526 8.526v0zM111.267 264.74h-25.579c-4.709 0-8.526-3.817-8.526-8.526s3.817-8.526 8.526-8.526h25.578c4.709 0 8.526 3.817 8.526 8.526s-3.817 8.526-8.526 8.526v0zM256.213 239.161c-9.417 0-17.053 7.635-17.053 17.053s7.635 17.053 17.053 17.053v0c9.418 0 17.053-7.635 17.053-17.053s-7.635-17.053-17.053-17.053v0zM256.213 290.318c-18.836 0-34.105-15.269-34.105-34.105s15.269-34.105 34.105-34.105v0c18.836 0 34.105 15.269 34.105 34.105s-15.269 34.105-34.105 34.105v0zM153.899 162.425c-0.030 0-0.067 0-0.103 0-2.488 0-4.727-1.065-6.286-2.765l-0.006-0.006-16.626-16.84c-1.065-1.407-1.705-3.187-1.705-5.115 0-4.709 3.817-8.526 8.526-8.526 1.929 0 3.708 0.641 5.137 1.72l-0.022-0.016 17.053 16.839c1.507 1.536 2.438 3.644 2.438 5.969 0 4.709-3.817 8.526-8.526 8.526-0.032 0-0.065 0-0.098-0h0.005zM375.58 384.107c-2.341-0.034-4.447-1.007-5.967-2.557l-0.002-0.002-17.053-16.839c-1.688-1.563-2.74-3.79-2.74-6.263 0-4.709 3.817-8.526 8.526-8.526 2.526 0 4.796 1.099 6.357 2.844l0.007 0.008 17.053 16.839c1.507 1.536 2.438 3.644 2.438 5.969 0 4.709-3.817 8.526-8.526 8.526-0.033 0-0.065 0-0.098-0h0.005z" />
<path d="M285.628 273.479l10.018 10.231 54.568-121.499-121.499 54.568 10.232 10.018c4.92-2.807 10.811-4.463 17.089-4.463 9.428 0 17.985 3.733 24.273 9.801l-0.010-0.010c6.209 6.145 10.053 14.669 10.053 24.091 0 6.368-1.756 12.325-4.81 17.414l0.086-0.154zM298.418 306.945c-2.341-0.034-4.447-1.007-5.967-2.557l-24.088-24.088c-1.507-1.536-2.438-3.644-2.438-5.969s0.93-4.432 2.438-5.969l-0.002 0.002c3.031-3.077 4.904-7.303 4.904-11.966 0-0.065-0-0.129-0.001-0.193v0.010c0-0.055 0.001-0.119 0.001-0.184 0-4.663-1.872-8.889-4.906-11.969l0.002 0.002c-3.141-3.040-7.426-4.913-12.15-4.913s-9.009 1.874-12.155 4.918l0.005-0.005c-1.558 1.459-3.659 2.356-5.969 2.356s-4.411-0.897-5.973-2.36l0.005 0.005-24.087-24.087c-1.559-1.546-2.524-3.688-2.524-6.055 0-3.462 2.064-6.442 5.029-7.778l0.054-0.022 153.046-68.636c1.039-0.487 2.257-0.77 3.541-0.77 4.709 0 8.526 3.817 8.526 8.526 0 1.284-0.284 2.501-0.793 3.594l0.022-0.053-68.637 153.046c-1.349 3.036-4.339 5.116-7.815 5.116-0.026 0-0.051 0-0.076-0h0.004z" />
<path d="M216.78 228.716l-54.568 121.499 121.499-54.568-10.231-10.018c-4.92 2.807-10.812 4.462-17.089 4.462-9.428 0-17.985-3.733-24.273-9.801l0.011 0.010c-6.188-6.142-10.018-14.652-10.018-24.056 0-0.010 0-0.022 0-0.032v0.002c0-6.181 1.705-12.15 4.69-17.266l-10.018-10.232zM145.372 375.58c-4.648-0.079-8.386-3.865-8.386-8.525 0-1.234 0.262-2.407 0.734-3.466l-0.022 0.055 68.423-153.046c1.357-3.018 4.338-5.082 7.799-5.082 2.368 0 4.51 0.965 6.055 2.524l24.087 24.087c1.507 1.536 2.438 3.644 2.438 5.969s-0.93 4.432-2.439 5.97l0.001-0.001c-3.142 3.095-5.088 7.395-5.088 12.15s1.946 9.055 5.085 12.148l0.002 0.002c3.141 3.040 7.427 4.913 12.15 4.913s9.009-1.873 12.155-4.918l-0.005 0.005c1.558-1.459 3.659-2.356 5.969-2.356s4.411 0.897 5.973 2.36l-0.005-0.005 24.087 24.087c1.558 1.546 2.524 3.688 2.524 6.055 0 3.462-2.064 6.442-5.029 7.778l-0.054 0.022-153.046 68.637c-0.958 0.406-2.074 0.641-3.244 0.641-0.059 0-0.118-0-0.175-0.002h0.008z" />
</svg>
