<svg version="1.1" xmlns="http://www.w3.org/2000/svg" width="512" height="512" viewBox="0 0 512 512">
<path fill="#fff" d="M192.284 312.036l-48.356-46.933-30.151 28.729 78.507 75.947 205.938-198.542-29.866-29.013z" />
<path fill="#fff" d="M256 469.334c-117.838-0.081-213.333-95.627-213.333-213.476 0-117.899 95.576-213.476 213.476-213.476 0.050 0 0.1 0 0.15 0h-0.008c117.838 0.081 213.334 95.626 213.334 213.476 0 117.899-95.577 213.476-213.476 213.476-0.050 0-0.1 0-0.15 0h0.008zM256 0c-136.251 6.623-244.213 118.704-244.213 256s107.962 249.376 243.622 255.977l0.592 0.023c136.251-6.623 244.213-118.704 244.213-256s-107.962-249.376-243.622-255.977l-0.591-0.023z" />
</svg>
