<svg version="1.1" xmlns="http://www.w3.org/2000/svg" width="512" height="512" viewBox="0 0 512 512">
<path fill="#353535" d="M361.086 441.232c25.579-41.779 42.631-99.118 45.402-164.13h61.815c-7.384 70.606-48.229 130.304-106.178 163.58l-1.039 0.55zM44.123 277.102h61.815c1.391 60.56 18.066 116.94 46.295 165.805l-0.893-1.675c-58.989-33.826-99.834-93.524-107.138-163.207l-0.078-0.923zM151.34 70.341c-25.578 41.778-42.631 99.118-45.402 164.13h-61.815c7.034-70.341 48.599-130.665 107.217-164.13zM277.529 234.471v-187.577c45.402 18.758 81.639 95.707 86.541 187.577h-86.541zM277.529 464.679v-187.577h86.541c-4.902 92.083-41.139 168.819-86.541 187.577zM234.898 277.102v187.577c-45.402-18.758-81.638-95.494-86.542-187.577h86.541zM234.898 46.894v187.577h-86.542c4.903-92.083 41.139-168.819 86.541-187.577zM468.303 234.471h-61.815c-1.392-60.56-18.065-116.94-46.295-165.805l0.893 1.675c58.618 33.465 100.183 93.788 107.217 164.13zM256.213 0c-0.063 0-0.138 0-0.213 0-141.385 0-256 114.615-256 256s114.615 256 256 256c141.385 0 256-114.615 256-256 0-0.075 0-0.15 0-0.225v0.012c0-141.109-114.678-255.786-255.786-255.786z" />
</svg>
