<svg xmlns="http://www.w3.org/2000/svg" xmlns:xlink="http://www.w3.org/1999/xlink" viewBox="0 0 18 18"><defs><path id="a" d="M0 0h18v18H0z"/></defs><g fill="none" fill-rule="evenodd"><path fill="#DB0000" d="M11.65 5.29L9 7.94 6.35 5.29 5.29 6.35 7.94 9l-2.65 2.65 1.06 1.06L9 10.06l2.65 2.65 1.06-1.06L10.06 9l2.65-2.65z"/><mask id="b" fill="#fff"><use xlink:href="#a"/></mask><path fill="#DB0000" d="M9 16.5a7.5 7.5 0 1 1 .01-15.01A7.5 7.5 0 0 1 9 16.5M9 0a9.01 9.01 0 0 0 0 18A9.01 9.01 0 0 0 9 0" mask="url(#b)"/></g></svg>