<svg version="1.1" xmlns="http://www.w3.org/2000/svg" width="512" height="512" viewBox="0 0 512 512">
<path fill="#757575" d="M457.67 220.957c-17.637 0-31.935-14.298-31.935-31.935v0c0-17.637 14.298-31.935 31.935-31.935s31.935 14.298 31.935 31.935v0c0 17.637-14.298 31.935-31.935 31.935v0zM323.707 354.918c-17.637 0-31.935-14.298-31.935-31.935v0c0-17.637 14.298-31.935 31.935-31.935s31.935 14.298 31.935 31.935v0c-0.118 17.548-14.37 31.728-31.935 31.728-0 0-0 0-0.001 0v0zM156.358 189.020c0-17.637 14.298-31.935 31.935-31.935s31.935 14.298 31.935 31.935v0c0 17.637-14.298 31.935-31.935 31.935v0c-17.637 0-31.935-14.298-31.935-31.935v0zM54.332 354.918c-17.637 0-31.935-14.298-31.935-31.935v0c0-17.637 14.298-31.935 31.935-31.935s31.935 14.298 31.935 31.935v0c0 17.637-14.298 31.935-31.935 31.935v0zM457.67 134.69c-29.959 0.118-54.214 24.372-54.331 54.32v0.011c0 10.991 3.318 21.152 8.709 29.654l-58.686 58.686c-8.291-5.46-18.457-8.711-29.384-8.711-0.095 0-0.19 0-0.286 0h0.014c-11.198 0-21.774 3.318-30.483 9.332l-59.309-59.309c5.599-8.502 8.709-18.663 8.709-29.654-0.118-29.959-24.372-54.214-54.32-54.331h-0.011c-29.959 0.118-54.214 24.372-54.331 54.32v0.011c0 10.991 3.318 21.152 8.709 29.654l-58.686 58.686c-8.347-5.579-18.611-8.908-29.651-8.917h-0.002c-30.032 0.118-54.331 24.49-54.331 54.538 0 0 0 0 0 0v0c0.117 29.959 24.372 54.214 54.32 54.331h0.011c29.959-0.118 54.214-24.372 54.331-54.32v-0.011c0-10.991-3.111-21.152-8.71-29.654l58.686-58.686c8.35 5.57 18.614 8.887 29.654 8.887s21.304-3.318 29.852-9.011l-0.197 0.124 59.723 59.516c-5.204 8.146-8.295 18.079-8.295 28.735 0 0.032 0 0.063 0 0.095v-0.005c0.118 29.959 24.372 54.214 54.32 54.331h0.011c29.959-0.118 54.214-24.372 54.331-54.32v-0.011c0-0.080 0-0.175 0-0.271 0-10.926-3.25-21.093-8.836-29.587l0.125 0.204 58.686-58.686c8.502 5.392 18.663 8.709 29.654 8.709 29.959-0.118 54.214-24.372 54.331-54.32v-0.011c-0.118-29.959-24.372-54.214-54.32-54.331h-0.011z" />
<path fill="#757575" d="M160.921 272.591l-22.811 22.811c-2.061 2.035-3.338 4.861-3.338 7.984 0 6.195 5.023 11.217 11.218 11.217 3.072 0 5.856-1.235 7.881-3.235l22.81-22.81c2.061-2.035 3.338-4.861 3.338-7.984 0-6.195-5.023-11.217-11.218-11.217-3.072 0-5.856 1.235-7.881 3.235l0.001-0.001zM343.2 242.938c3.084-0.022 5.868-1.286 7.879-3.317l22.812-22.812c2.061-2.035 3.337-4.861 3.337-7.984 0-6.196-5.022-11.218-11.217-11.218-3.072 0-5.856 1.235-7.881 3.235l-22.81 22.81c-2.13 2.042-3.454 4.911-3.454 8.089 0 6.185 5.014 11.198 11.198 11.198 0.048 0 0.095-0 0.143-0.001h-0.007z" />
</svg>
