<svg version="1.1" xmlns="http://www.w3.org/2000/svg" width="512" height="512" viewBox="0 0 512 512">
<path fill="#009ee2" d="M237.226 172.8l2.774 5.333c1.066 1.28 2.56 2.774 3.413 4.267l4.906 4.267c1.494 1.066 3.413 2.346 5.974 2.987 1.92 0.853 3.84 1.28 6.4 1.92 2.134 0.427 4.267 0.427 6.4 0.427 1.707 0 4.267 0 6.187-0.427 2.134-0.64 3.84-1.066 5.334-2.133h0.426c4.075-1.709 7.549-4.089 10.45-7.036l0.43-0.43c1.493-1.494 2.346-2.987 3.413-4.267 1.028-1.398 1.834-3.034 2.322-4.802l0.024-0.105c0-0.427 0-0.427 0.64-1.066 0.853-1.92 1.493-4.267 1.92-6.4 0.426-1.707 0.426-4.267 0.426-5.974 0-2.133 0-4.267-0.426-6.4-0.64-1.92-1.067-3.84-2.134-6.186-1.438-3.313-3.379-6.143-5.761-8.534l0.001 0.001-0.853-1.066c-1.493-1.494-2.986-2.346-4.906-3.84-2.134-1.066-3.413-2.133-5.546-2.987l-5.76-1.92c-2.56-0.427-4.48-0.427-6.613-0.427-1.92 0-4.267 0-6.4 0.427-2.197 0.554-4.113 1.284-5.917 2.206l0.156-0.073h-0.427c-2.133 0.853-4.053 1.707-5.547 2.774-1.92 1.494-3.413 2.346-4.906 3.84-1.394 1.292-2.654 2.687-3.782 4.186l-0.058 0.080c-0.964 1.476-1.958 3.222-2.85 5.028l-0.137 0.305c-0.802 1.654-1.464 3.58-1.891 5.593l-0.030 0.167c-0.427 2.346-0.427 4.267-0.427 6.4 0 1.707 0 4.267 0.427 6.186 0.64 3.84 1.494 5.76 2.133 7.68zM306.346 335.574h-11.947v-110.507c0-6.4-5.76-11.733-13.44-11.733h-54.4c-7.254 0-13.44 4.906-13.44 11.733v24.32c0 6.4 5.76 11.733 13.44 11.733h10.88v75.094h-10.88c-7.254 0-13.44 4.906-13.44 11.733v24.32c0 6.4 5.76 11.733 13.44 11.733h79.787c7.253 0 13.44-4.906 13.44-11.733v-24.32c0-6.827-6.4-12.16-13.44-12.16z" />
<path fill="#009ee2" d="M256 478.293c-122.796-0.122-222.293-99.695-222.293-222.506 0-122.887 99.62-222.507 222.507-222.507 0.075 0 0.15 0 0.225 0h-0.012c122.796 0.121 222.293 99.695 222.293 222.506 0 122.887-99.62 222.507-222.507 222.507-0.075 0-0.15 0-0.225 0h0.011zM256 0c-141.385 0-256 114.615-256 256s114.615 256 256 256v0c141.385 0 256-114.615 256-256s-114.615-256-256-256v0z" />
</svg>
