<svg xmlns="http://www.w3.org/2000/svg" viewBox="0 0 179.83 77.69"><defs></defs><g><g><g clip-path="url(#a)" transform="translate(0 7.26)"><path fill="#0064a2" d="M68.91 64.73a24.19 24.19 0 0 1-10.04-2.19h-.02a1.82 1.82 0 0 1-1.02-2.33l.97-2.48a1.82 1.82 0 0 1 1.74-1.28 1.88 1.88 0 0 1 .7.14 19.33 19.33 0 0 0 6.83 1.27c2.52 0 4.39-.59 5.56-1.74a6.3 6.3 0 0 0 1.62-4.73v-1.91c-.9.5-2.66 1.08-6.02 1.08a14.12 14.12 0 0 1-5.71-1.15 12.8 12.8 0 0 1-4.5-3.3c-2.63-3-4.02-7.23-4.02-12.2a25.63 25.63 0 0 1 1.1-7.8 15.9 15.9 0 0 1 3.33-5.92 14.44 14.44 0 0 1 5.55-3.75 21.53 21.53 0 0 1 7.77-1.3 28.3 28.3 0 0 1 11.15 1.97.16.16 0 0 1 .05.03A1.84 1.84 0 0 1 85 18.79v31.02c0 4.73-1.4 8.43-4.18 11a13.6 13.6 0 0 1-4.77 2.8 21 21 0 0 1-6.15 1.1l-.98.02zm3.06-43.84a5.86 5.86 0 0 0-5.54 3.12c-1.15 2.03-1.7 5.07-1.7 9.31 0 4 .53 6.84 1.64 8.7a5.77 5.77 0 0 0 5.4 2.84 6.95 6.95 0 0 0 3.48-.83V21.47a7.77 7.77 0 0 0-3.28-.58zm32.36 29.75c-10.42 0-15.93-3.76-15.93-10.88 0-8.06 6.1-12.32 17.65-12.32.86 0 1.73.02 2.6.07-.33-3.71-2.66-5.52-7.14-5.52a19.28 19.28 0 0 0-6.81 1.27.03.03 0 0 0-.02 0 1.87 1.87 0 0 1-.7.14 1.82 1.82 0 0 1-1.74-1.27l-.97-2.48a1.74 1.74 0 0 1-.11-.64 1.82 1.82 0 0 1 1.13-1.69.03.03 0 0 0 .02 0 24.2 24.2 0 0 1 10.05-2.2c.35 0 .68.01.97.03a21.05 21.05 0 0 1 6.16 1.1 13.6 13.6 0 0 1 4.77 2.8c2.77 2.57 4.18 6.27 4.18 11v16.9a1.82 1.82 0 0 1-1.1 1.65h-.05a37.48 37.48 0 0 1-12.96 2.04zm2.9-18.62h-.01a10.73 10.73 0 0 0-6.33 1.71 6.35 6.35 0 0 0-2.58 5.46 6.36 6.36 0 0 0 1.73 4.69 6.74 6.74 0 0 0 4.83 1.68 16.12 16.12 0 0 0 3.8-.33V32.08a18.93 18.93 0 0 0-1.44-.06zM7.46 50.16H1.8a1.8 1.8 0 0 1-1.8-1.8 1.72 1.72 0 0 1 .08-.53v-.04l.02-.01L13.56 6.41a1.81 1.81 0 0 1 1.74-1.3h7.72a1.8 1.8 0 0 1 1.72 1.24l13.42 41.41a1.78 1.78 0 0 1 .1.59 1.81 1.81 0 0 1-1.78 1.8h-7.13a1.8 1.8 0 0 1-1.72-1.28v-.05l-2.38-8.3H11.7l-2.49 8.32a1.8 1.8 0 0 1-1.73 1.31h-.02zm11.18-35.81a38.4 38.4 0 0 1-1.18 5.43l-4.2 14.67h10.55l-4-14.67a34.81 34.81 0 0 1-1.05-5.43h-.13zm112.59 35.81h-6.12a1.8 1.8 0 0 1-1.8-1.8V19.55a3.2 3.2 0 0 1 2.27-2.96 36.51 36.51 0 0 1 11.9-1.57c.7 0 1.47.02 2.31.04h.06a1.8 1.8 0 0 1 1.8 1.79v2.43a1.8 1.8 0 0 1-1.8 1.81 1.65 1.65 0 0 1-.21-.01 13.94 13.94 0 0 0-1.17-.05 15.34 15.34 0 0 0-5.43.93v26.45a1.8 1.8 0 0 1-1.81 1.75zm-77.88-.04h-1.98a12 12 0 0 1-12-12.01V5.07a1.8 1.8 0 0 1 1.03-1.63L46.12.45A2.46 2.46 0 0 1 47.3.11a1.8 1.8 0 0 1 1.8 1.8v37.65a3.94 3.94 0 0 0 1.3 2.86 4.4 4.4 0 0 0 2.95 1.17 1.8 1.8 0 0 1 1.8 1.8v2.93a1.8 1.8 0 0 1-1.8 1.8z"/></g></g><path fill="#009ee2" d="M148.85 24.14a1.8 1.8 0 0 1 2.77-1.48l10.45 6.02.02.01a1.8 1.8 0 0 1-.11 3.14l-10.45 6.04h-.02a1.8 1.8 0 0 1-2.66-1.65V24.14z"/><path fill="#fecb00" d="M165.59 33.79a1.8 1.8 0 0 1 2.77-1.47l10.45 6.02.02.01a1.8 1.8 0 0 1-.11 3.14l-10.45 6.04-.02.01a1.8 1.8 0 0 1-2.66-1.66z"/><path fill="#009640" d="M148.85 43.45a1.8 1.8 0 0 1 2.77-1.47l10.45 6.04h.02a1.8 1.8 0 0 1-.11 3.14l-10.45 6.03h-.02a1.8 1.8 0 0 1-2.66-1.64V43.46z"/><g><g clip-path="url(#b)" transform="translate(109.56 61.02)"><path d="M29.86 16.67a5.24 5.24 0 0 1-3.99-1.56 6.1 6.1 0 0 1-1.41-4.22 6.26 6.26 0 0 1 1.31-4.16 4.75 4.75 0 0 1 3.74-1.56 4.5 4.5 0 0 1 3.38 1.27 6.15 6.15 0 0 1 1.35 4.65l-6.7.95a2.45 2.45 0 0 0 2.7 2.43 6.7 6.7 0 0 0 2.9-.6l.73 2a8.85 8.85 0 0 1-4.01.8zm-.48-9.6a1.75 1.75 0 0 0-1.32.54 3.9 3.9 0 0 0-.74 2.87l3.91-.58a3.9 3.9 0 0 0-.48-2.15 1.56 1.56 0 0 0-1.37-.68zm-15.65 9.6a5.24 5.24 0 0 1-3.99-1.56 6.1 6.1 0 0 1-1.41-4.22 6.26 6.26 0 0 1 1.32-4.17 4.75 4.75 0 0 1 3.73-1.55 4.5 4.5 0 0 1 3.38 1.26 6.15 6.15 0 0 1 1.37 4.67l-6.72.94a2.45 2.45 0 0 0 2.7 2.43 6.5 6.5 0 0 0 2.91-.6l.73 2a8.86 8.86 0 0 1-4.01.8zm-.48-9.6a1.76 1.76 0 0 0-1.32.54 3.89 3.89 0 0 0-.74 2.87l3.9-.57a3.9 3.9 0 0 0-.47-2.16 1.55 1.55 0 0 0-1.36-.68zm34.77 9.6a4.56 4.56 0 0 1-3.69-1.64 6.46 6.46 0 0 1-1.25-4.12c0-3.54 1.88-5.74 4.92-5.74 3.06 0 4.97 2.2 4.97 5.74a6.46 6.46 0 0 1-1.26 4.12 4.56 4.56 0 0 1-3.69 1.64zm0-9.5c-1.53 0-1.72 1.98-1.72 3.7 0 1.68.2 3.62 1.72 3.62s1.73-1.83 1.73-3.62c0-1.72-.2-3.7-1.73-3.7zm-8.08 9.5a4.16 4.16 0 0 1-3.3-1.5 6.58 6.58 0 0 1-1.31-4.28 6.38 6.38 0 0 1 1.36-4.26 4.21 4.21 0 0 1 3.24-1.46 4.16 4.16 0 0 1 2.74.8l-.66 1.77a2.02 2.02 0 0 0-1.33-.42 1.7 1.7 0 0 0-1.57.92 5.4 5.4 0 0 0-.5 2.62c0 2.21.76 3.53 2.05 3.53a1.96 1.96 0 0 0 1.35-.45l.68 1.93a3.96 3.96 0 0 1-2.74.8zm-33.93-.2H2.63V4.56H.13V2.32h8.35v2.24H6.01v11.9zm57.98 0h-3.24V8.65c0-.91-.65-1.46-1.74-1.46a3.5 3.5 0 0 0-1.31.2v9.07h-3.24V6a10.6 10.6 0 0 1 4.53-.83 5 5 0 0 1 3.55 1.12 5.58 5.58 0 0 1 3.7-1.12 4.3 4.3 0 0 1 3.01 1.03 3.32 3.32 0 0 1 1.02 2.49v7.77h-3.24V8.69a1.44 1.44 0 0 0-1.62-1.5 1.92 1.92 0 0 0-1.41.53v8.74zm-41.09 0h-3.24V.32h3.25v16.14z" fill="#878786"/></g></g><g><g clip-path="url(#c)" transform="translate(55.46 -.23)"><path d="M5.38 15.25L.1.23h2.15l4.29 13.02h.04L10.9.23h2.09L7.65 15.25z" fill="#878786"/></g></g><g clip-path="url(#d)" transform="translate(0 -.34)"><path d="M70.15 15.36h2V.34h-2z" fill="#878786"/><path d="M75.78 15.36h-2.04L79.59.34h2.2l5.88 15.02h-2.21l-1.64-4.52h-6.36l-1.68 4.52zm4.86-13.21l-2.54 7h5.08l-2.5-7z" fill="#878786"/><path d="M96.4 15.36h-7.26V.34h5.45l1.04.01c.39.01.75.03 1.1.06a8.44 8.44 0 0 1 1.02.16 2.58 2.58 0 0 1 .81.32 3.93 3.93 0 0 1 1.25 1.22 3.4 3.4 0 0 1 .52 1.91 3.69 3.69 0 0 1-.58 2.07 3.42 3.42 0 0 1-1.65 1.3v.04a3.48 3.48 0 0 1 2.13 1.26 3.8 3.8 0 0 1 .73 2.36 4.51 4.51 0 0 1-.3 1.6 4.03 4.03 0 0 1-.86 1.37 4.38 4.38 0 0 1-1.44.97 4.93 4.93 0 0 1-1.96.37zm-5.26-6.88v5.2h5a2.89 2.89 0 0 0 2.07-.71 2.62 2.62 0 0 0 .75-1.98 2.47 2.47 0 0 0-.27-1.22 2.16 2.16 0 0 0-.73-.77 3.08 3.08 0 0 0-1.04-.4 6.36 6.36 0 0 0-1.22-.12zm0-6.46V6.8h4a3.96 3.96 0 0 0 2.45-.6 2.18 2.18 0 0 0 .75-1.8 2.65 2.65 0 0 0-.26-1.26 1.8 1.8 0 0 0-.7-.71 2.74 2.74 0 0 0-1.01-.33 9.8 9.8 0 0 0-1.23-.08z" fill="#878786"/><path d="M103.64 15.36h2V.34h-2z" fill="#878786"/><path d="M111 .34v13.34h7.95v1.68H109V.34z" fill="#878786"/><path d="M120.78 15.36h2V.34h-2z" fill="#878786"/><path d="M131.29 15.36h-5.15V.34h5.15a7.52 7.52 0 0 1 5.35 1.77c1.24 1.17 1.87 2.98 1.87 5.38a12.24 12.24 0 0 1-.42 3.36 6.32 6.32 0 0 1-1.3 2.46 5.68 5.68 0 0 1-2.25 1.52 9.05 9.05 0 0 1-3.25.53zm-3.15-13.34v11.66h3.32a8.38 8.38 0 0 0 .85-.06 4.75 4.75 0 0 0 1.07-.25 4.9 4.9 0 0 0 1.12-.58 3.82 3.82 0 0 0 1-1.03 5.79 5.79 0 0 0 .73-1.63 8.6 8.6 0 0 0 .28-2.37 10.09 10.09 0 0 0-.26-2.4 4.65 4.65 0 0 0-.86-1.81 3.82 3.82 0 0 0-1.55-1.14 6.19 6.19 0 0 0-2.33-.39z" fill="#878786"/><path d="M141.23 15.36h-2.04L145.04.34h2.2l5.88 15.02h-2.21l-1.64-4.52h-6.36l-1.68 4.52zm4.86-13.21l-2.54 7h5.08l-2.5-7z" fill="#878786"/><path d="M159.74 15.36h-5.15V.34h5.15a7.52 7.52 0 0 1 5.35 1.77c1.24 1.17 1.87 2.98 1.87 5.38a12.24 12.24 0 0 1-.42 3.36 6.32 6.32 0 0 1-1.3 2.46 5.68 5.68 0 0 1-2.25 1.52 9.05 9.05 0 0 1-3.25.53zm-3.15-13.34v11.66h3.32a8.38 8.38 0 0 0 .85-.06 4.75 4.75 0 0 0 1.07-.25 4.9 4.9 0 0 0 1.12-.58 3.82 3.82 0 0 0 1-1.03 5.82 5.82 0 0 0 .73-1.63 8.6 8.6 0 0 0 .28-2.37 10.09 10.09 0 0 0-.26-2.4 4.65 4.65 0 0 0-.86-1.81 3.82 3.82 0 0 0-1.55-1.14 6.19 6.19 0 0 0-2.33-.39z" fill="#878786"/><path d="M179.77.34v1.68h-8.37V6.8h7.8v1.68h-7.8v5.2h8.44v1.68H169.4V.34z" fill="#878786"/></g></g></svg>
