<svg xmlns="http://www.w3.org/2000/svg" xmlns:xlink="http://www.w3.org/1999/xlink" viewBox="0 0 17.54 17.54"><g fill="none" fill-rule="evenodd"><path fill="#757575" d="M6.26 10.96a4.7 4.7 0 0 1-4.7-4.7 4.7 4.7 0 0 1 4.7-4.7 4.7 4.7 0 0 1 4.7 4.7 4.7 4.7 0 0 1-4.7 4.7zm9.07 3.91l-.46.46-2.8-2.8.45-.47 2.8 2.81zm-2.8-8.61A6.27 6.27 0 0 0 6.25 0 6.27 6.27 0 0 0 0 6.26a6.27 6.27 0 0 0 6.26 6.26 6.21 6.21 0 0 0 3.83-1.32l.54.54-.78.78 5.02 5.02 2.67-2.67-5.02-5.02-.78.78-.54-.54a6.22 6.22 0 0 0 1.32-3.83z" /></g></svg>
