<svg version="1.1" xmlns="http://www.w3.org/2000/svg" width="512" height="512" viewBox="0 0 512 512">
<path fill="#353535" d="M469.333 266.88h-426.666v-193.92h426.666v193.494zM469.333 352.853h-426.666v-43.306h426.666v43.094zM234.666 438.827h42.666v-43.094h-42.666v43.094zM469.333 30.080h-426.666c-23.466 0-42.666 19.2-42.666 43.093v279.466c-0.001 0.063-0.001 0.139-0.001 0.214 0 23.607 19.077 42.758 42.656 42.88h149.345v43.094h-21.334v43.094h170.667v-43.094h-21.334v-43.094h149.334c0 0 0 0 0 0 23.564 0 42.667-19.103 42.667-42.666 0-0.075 0-0.15-0-0.225v0.012-279.68c0-0.064 0-0.138 0-0.214 0-23.607-19.077-42.758-42.656-42.88h-0.012z" />
</svg>
