<svg version="1.1" xmlns="http://www.w3.org/2000/svg" width="512" height="512" viewBox="0 0 512 512">
<path fill="#353535" d="M45.346 85.358v-21.332c0-0.001 0-0.003 0-0.004 0-11.632 9.309-21.088 20.883-21.328l0.022-0.001h84.049c0.64 4.053 0.64 10.666 0.427 15.572v96.848c0 4.906 0 11.519-0.427 15.572h-41.811v21.333c0 117.54 94.501 213.321 210.548 213.321h21.119v-42.238c3.84-0.64 10.666-0.426 15.359-0.426h95.568c4.693 0 11.306 0 15.146 0.426v84.901c0 0.002 0 0.003 0 0.005 0 11.632-9.309 21.089-20.884 21.327l-0.022 0h-84.262c-174.676-1.447-315.72-143.385-315.72-318.265 0-0.603 0.002-1.207 0.005-1.81l-0.001 0.093v-63.996zM361.061 512h84.475c34.925-0.241 63.144-28.61 63.144-63.568 0-0.151-0-0.301-0.002-0.451v0.023-85.329c0-12.8-3.84-23.038-11.306-30.505-12.159-12.159-29.865-12.159-46.291-12.159h-94.928c-16.853 0-34.132-0.214-46.931 12.159-7.039 7.253-10.666 17.065-10.88 29.012-76.762-10.42-136.706-70.872-146.253-146.998l-0.085-0.833c11.733-0.214 21.333-3.84 28.585-11.093 12.373-12.799 12.16-30.292 12.16-47.144v-96.635c0-17.066 0.214-34.558-12.16-46.931-7.3-7.141-17.303-11.549-28.333-11.549-0.538 0-1.075 0.011-1.608 0.032l0.077-0.002h-84.689c-34.858 0.481-62.93 28.851-62.93 63.778 0 0.077 0 0.154 0.001 0.231v-0.012 85.329c0 199.882 160.631 362.646 358.166 362.646zM266.56 0.029v42.664c110.692 0.845 200.098 90.773 200.098 201.583 0 0.377-0.001 0.754-0.003 1.13v-0.058h42.238c0.001-0.256 0.002-0.559 0.002-0.861 0-134.34-108.361-243.372-242.445-244.458l-0.103-0.001z" />
<path fill="#353535" d="M361.274 245.349h42.024c0-76.369-61.437-138.659-136.952-138.659v42.664c52.505 0.363 94.929 43.010 94.929 95.565 0 0.151-0 0.302-0.001 0.452v-0.024z" />
</svg>
